Coordinates
version=1
nRows=12
nColumns=34
inDegrees=yes

Units are S.I. units (second, meters, Newtons, ...)
If the header above contains a line with 'inDegrees', this indicates whether rotational values are in degrees (yes) or radians (no).

endheader
time	pelvis_tilt	pelvis_list	pelvis_rotation	pelvis_tx	pelvis_ty	pelvis_tz	hip_flexion_r	hip_adduction_r	hip_rotation_r	knee_angle_r	ankle_angle_r	subtalar_angle_r	mtp_angle_r	hip_flexion_l	hip_adduction_l	hip_rotation_l	knee_angle_l	ankle_angle_l	subtalar_angle_l	mtp_angle_l	lumbar_extension	lumbar_bending	lumbar_rotation	arm_flex_r	arm_add_r	arm_rot_r	elbow_flex_r	pro_sup_r	arm_flex_l	arm_add_l	arm_rot_l	elbow_flex_l	pro_sup_l
      0.00000000	      2.51269790	      0.64914594	      2.14471810	      0.04339833	      1.31556951	     -0.06158565	     -7.27838439	      2.52030993	      1.29804503	      2.69901218	      9.42405777	     -2.01409975	      0.00000000	     -7.13387737	      0.03222597	      0.06146701	      4.65676153	      8.50110882	     -3.53219930	      0.00000000	     -4.33974730	      0.65961714	     -4.64975793	      9.00605197	     -9.80276698	     14.05112858	    105.22577724	     97.52781516	      0.16407531	     -6.62135441	     13.55747641	     28.46409987	     54.13300717
      0.01666670	     -0.13963761	      0.82529878	      2.40909409	      0.04532971	      1.31422618	     -0.06291205	     -4.92907846	      2.60139957	      1.99239745	      1.62277395	      9.08917221	     -0.12025630	      0.00000000	     -4.66640922	      0.77016497	      0.33553886	      4.02132348	      6.93657679	     -2.48845906	      0.00000000	     -0.34959047	      1.02731669	     -4.00247830	      8.53491368	     -9.66910035	     14.06104757	    105.84345235	     96.69698127	     -0.20892690	     -5.40973028	     11.85032973	     25.52176350	     54.17833013
      0.03333330	     -1.10112522	      1.28853905	      2.49583220	      0.04565236	      1.30559016	     -0.06277982	     -4.56201001	      2.19391662	      1.52358240	      0.32787933	      8.98290427	      0.08537822	      0.00000000	     -3.74610955	      1.41758074	     -0.36917168	      3.90785103	      7.20439282	     -0.77112040	      0.00000000	      1.18842807	      0.11951917	     -3.41773521	      8.07900995	     -9.42666298	     13.96436559	    105.98195601	     96.12448203	      0.20827436	     -5.31804224	     10.72166712	     23.14790353	     54.31206152
      0.05000000	     -1.11168624	      1.66619712	      2.44478794	      0.04561406	      1.30509147	     -0.06295286	     -4.78307757	      1.81024029	      1.70670605	      0.00000000	      9.11777919	     -0.02767922	      0.00000000	     -4.33551186	      1.96824874	     -0.56482906	      2.97714644	      6.62040199	     -0.65393234	      0.00000000	      1.41467494	     -0.63851544	     -2.58685649	      8.13898978	     -9.68006765	     14.56949770	    105.79000593	     95.91237726	      0.63049396	     -5.44401526	     10.55871809	     22.34833353	     54.53343022
      0.06666670	     -1.41551308	      1.88752389	      2.24433758	      0.04844582	      1.31148725	     -0.06141748	     -4.52505299	      1.58010708	      2.07643984	      0.00000000	      9.07420011	     -0.20673405	      0.00000000	     -4.41765981	      2.27998487	     -0.44520303	      2.41930632	      6.35193453	     -0.29169295	      0.00000000	      2.02895138	     -1.04905235	     -1.93949263	      8.05631866	     -9.71798783	     15.51402723	    105.39510265	     95.24725914	      1.01902933	     -5.27888784	     10.91758215	     20.52791947	     55.26866407
      0.08333330	     -1.55264448	      2.00139052	      2.16008568	      0.04558488	      1.31329991	     -0.06090490	     -4.41702280	      1.48294459	      2.05093589	      0.00000000	      8.97527727	     -0.23236228	      0.00000000	     -4.36353427	      2.42863263	     -0.19568092	      2.10550746	      6.13103018	     -0.09832614	      0.00000000	      1.98815891	     -1.32450655	     -1.51847128	      8.29013913	     -9.34110966	     15.72674463	    105.26887660	     95.19236742	      1.39955266	     -5.32544529	     10.94754440	     20.62238749	     55.32620318
      0.10000000	     -1.60024762	      2.21806162	      2.09652249	      0.04543874	      1.30536069	     -0.06084084	     -4.36649921	      1.26293076	      2.34807826	      0.00000000	      8.99594527	     -0.52715483	      0.00000000	     -4.40677255	      2.66357967	     -0.07286341	      1.88632619	      5.87282767	     -0.08874411	      0.00000000	      2.10687469	     -1.82802778	     -0.99100036	      8.73484263	     -9.20281292	     15.85097904	    104.93306228	     94.92269337	      1.74575807	     -5.45543988	     11.18573442	     20.77264194	     55.53381740
      0.11666670	     -1.69123920	      2.22074711	      1.98004893	      0.04214294	      1.30041511	     -0.06210633	     -4.18533794	      1.20260079	      2.98229136	      0.00000000	      8.66124054	     -1.81784867	      0.00000000	     -4.25106139	      2.74327206	      0.43740209	      1.71390598	      5.99520141	     -0.34363742	      0.00000000	      2.14106808	     -1.85757112	     -0.74089389	      9.87208593	     -8.93066978	     15.51270583	    103.82282794	     93.59883415	      2.01373179	     -5.61622600	     12.35385156	     21.14030090	     56.30847840
      0.13333330	     -1.79536776	      2.20910118	      1.94667778	      0.04344631	      1.30390832	     -0.06118833	     -3.96963347	      1.20207186	      3.00504300	      0.00000000	      8.76793315	     -1.86824433	      0.00000000	     -4.05630781	      2.72414222	      0.72104813	      1.67567737	      6.05191480	     -0.25241984	      0.00000000	      2.02622434	     -1.92374430	     -0.41915493	     10.61761926	     -9.00916039	     15.28863755	    103.68338123	     93.52071648	      2.29842862	     -5.66435223	     12.38481415	     21.27737745	     56.33812032
      0.15000000	     -1.68007409	      2.17170149	      1.94656607	      0.04253848	      1.30676334	     -0.06119331	     -4.04591393	      1.20258498	      3.14069262	      0.00000000	      8.55843284	     -2.10085124	      0.00000000	     -3.93017665	      2.69826522	      1.05972276	      1.96696268	      6.23055247	     -0.35911425	      0.00000000	      1.84929947	     -1.93306134	      0.06916359	     11.14858702	     -9.02291515	     14.47225094	    102.13323340	     93.11419879	      2.62475377	     -5.69045627	     12.68192822	     21.84002259	     56.50643838
      0.16666670	     -1.74689361	      2.11051160	      1.82880596	      0.04098046	      1.30776616	     -0.06062676	     -3.89589801	      1.26799117	      3.15220546	      0.00000000	      8.49158498	     -2.13563806	      0.00000000	     -3.82856075	      2.62683604	      1.23868842	      1.91919594	      6.15501284	     -0.27492362	      0.00000000	      1.67832148	     -1.95703985	      0.20778245	     11.40056689	     -8.90480983	     14.34452685	    101.93980712	     93.05686619	      2.77909587	     -5.77358990	     12.71064409	     21.92294869	     56.52839684
      0.18333330	     -1.54186950	      2.11763318	      1.91340495	      0.04026143	      1.30473202	     -0.06141360	     -3.99530624	      1.24563385	      3.35445596	      0.00000000	      8.13223925	     -2.65929579	      0.00000000	     -3.85905562	      2.63480494	      1.51394091	      2.13228361	      6.06637914	     -0.46121711	      0.00000000	      1.56059815	     -1.96360897	      0.45215421	     11.86484423	     -8.39712207	     13.01287243	     99.88154185	     92.53618502	      3.02127603	     -5.91649905	     13.10300873	     22.58543851	     56.74482435
